<svg width="16" height="16" viewBox="0 0 16 16" fill="none" xmlns="http://www.w3.org/2000/svg">
<path d="M1.00005 4.00529C1.13132 4.00511 1.26133 4.03093 1.38257 4.08126C1.50381 4.13158 1.61388 4.20542 1.70644 4.2985L6.81972 9.41112C6.97443 9.56587 7.15811 9.68863 7.36026 9.77238C7.56242 9.85613 7.7791 9.89924 7.99792 9.89924C8.21674 9.89924 8.43341 9.85613 8.63557 9.77238C8.83773 9.68863 9.0214 9.56587 9.17611 9.41112L14.2814 4.30517C14.3736 4.20969 14.4839 4.13354 14.6059 4.08115C14.7278 4.02877 14.859 4.00119 14.9917 4.00004C15.1244 3.99888 15.2561 4.02418 15.3789 4.07444C15.5018 4.1247 15.6134 4.19892 15.7072 4.29278C15.8011 4.38663 15.8753 4.49824 15.9256 4.62109C15.9758 4.74393 16.0011 4.87556 16 5.00829C15.9988 5.14101 15.9712 5.27218 15.9188 5.39413C15.8665 5.51609 15.7903 5.62639 15.6948 5.7186L10.5895 10.8246C9.90176 11.5111 8.96969 11.8966 7.99792 11.8966C7.02614 11.8966 6.09407 11.5111 5.40629 10.8246L0.293003 5.71194C0.153115 5.57214 0.0578396 5.39399 0.0192323 5.20002C-0.019375 5.00606 0.000421157 4.805 0.0761158 4.62229C0.15181 4.43959 0.280002 4.28344 0.444468 4.1736C0.608935 4.06377 0.802285 4.0052 1.00005 4.00529Z" fill="#DCDCF0"/>
</svg>
