<svg width="30" height="30" viewBox="0 0 20 21" fill="none" xmlns="http://www.w3.org/2000/svg">
<path d="M10 15.0128C12.2545 15.0128 14.0909 13.1764 14.0909 10.9219C14.0909 8.66733 12.2545 6.83097 10 6.83097C7.74546 6.83097 5.90909 8.66733 5.90909 10.9219C5.90909 13.1764 7.74546 15.0128 10 15.0128Z" fill="#DCDCF0"/>
<path fill-rule="evenodd" clip-rule="evenodd" d="M5.90909 0.921875H14.0909C17.35 0.921875 20 3.57188 20 6.83097V15.0128C20 18.2719 17.35 20.9219 14.0909 20.9219H5.90909C2.65 20.9219 0 18.2719 0 15.0128V6.83097C0 3.57188 2.65 0.921875 5.90909 0.921875ZM5 10.9219C5 13.681 7.24091 15.9219 10 15.9219C12.7591 15.9219 15 13.681 15 10.9219C15 8.16278 12.7591 5.92188 10 5.92188C7.24091 5.92188 5 8.16278 5 10.9219ZM14.5455 5.46733C14.5455 5.96733 14.9545 6.37642 15.4545 6.37642C15.9545 6.37642 16.3636 5.96733 16.3636 5.46733C16.3636 4.96733 15.9545 4.55824 15.4545 4.55824C14.9545 4.55824 14.5455 4.96733 14.5455 5.46733Z" fill="#DCDCF0"/>
</svg>
