<svg width="30" height="30" viewBox="0 0 20 20" fill="none" xmlns="http://www.w3.org/2000/svg">
<path d="M5.21209 3.04361C5.21209 4.33927 4.11644 5.26101 2.60774 5.26101C1.12514 5.26101 0.00339674 4.31753 0.00339674 3.0697C0.00339674 1.82622 1.09905 0.921875 2.60774 0.921875C4.06861 0.921875 5.14253 1.79579 5.21209 3.04361Z" fill="#DCDCF0"/>
<path d="M5.21739 6.57065V19.1793C5.21739 19.4185 5.02174 19.6141 4.78261 19.6141H0.434783C0.195652 19.6141 0 19.4185 0 19.1793V6.57065C0 6.33152 0.195652 6.13587 0.434783 6.13587H4.78261C5.02174 6.13587 5.21739 6.33152 5.21739 6.57065Z" fill="#DCDCF0"/>
<path d="M20 19.1793V11.788C20 8.975 18.4913 6.13587 15.1261 6.13587C13.5957 6.13587 12.4391 6.72717 11.7391 7.21848V6.57065C11.7391 6.33152 11.5435 6.13587 11.3043 6.13587H6.95652C6.71739 6.13587 6.52174 6.33152 6.52174 6.57065V19.1793C6.52174 19.4185 6.71739 19.6141 6.95652 19.6141H10.8696C11.1096 19.6141 11.3043 19.4193 11.3043 19.1793V12.4402C11.3043 11.4098 12.0957 10.5707 13.1043 10.4924C13.1565 10.4837 13.2087 10.4837 13.2609 10.4837C13.313 10.4837 13.3652 10.4837 13.4174 10.4924C14.4261 10.5707 15.2174 11.4098 15.2174 12.4402V19.1793C15.2174 19.4193 15.4122 19.6141 15.6522 19.6141H19.5652C19.8043 19.6141 20 19.4185 20 19.1793Z" fill="#DCDCF0"/>
</svg>
