<?xml version="1.0" encoding="UTF-8"?>
<svg xmlns="http://www.w3.org/2000/svg" xmlns:xlink="http://www.w3.org/1999/xlink" width="100%" height="100%" viewBox="0 0 16 16" version="1.1">
<defs>
<linearGradient id="linear0" gradientUnits="userSpaceOnUse" x1="16.9688" y1="0" x2="16.9688" y2="32" >
<stop offset="0" style="stop-color:rgb(61.568627%,36.078431%,100%);stop-opacity:1;"/>
<stop offset="0.333333" style="stop-color:rgb(97.254902%,47.843137%,54.509804%);stop-opacity:1;"/>
<stop offset="0.666667" style="stop-color:rgb(97.254902%,56.862745%,39.607843%);stop-opacity:1;"/>
<stop offset="1" style="stop-color:rgb(93.333333%,80.784314%,56.862745%);stop-opacity:1;"/>
</linearGradient>
<linearGradient id="linear1" gradientUnits="userSpaceOnUse" x1="16.9688" y1="12" x2="16.9688" y2="19.9925" >
<stop offset="0" style="stop-color:rgb(61.568627%,36.078431%,100%);stop-opacity:1;"/>
<stop offset="0.333333" style="stop-color:rgb(97.254902%,47.843137%,54.509804%);stop-opacity:1;"/>
<stop offset="0.666667" style="stop-color:rgb(97.254902%,56.862745%,39.607843%);stop-opacity:1;"/>
<stop offset="1" style="stop-color:rgb(93.333333%,80.784314%,56.862745%);stop-opacity:1;"/>
</linearGradient>
</defs>
<g id="surface1">
<path style="fill-rule:nonzero;fill:rgb(3.921569%,1.960784%,7.843137%);fill-opacity:1;stroke-width:1;stroke-linecap:butt;stroke-linejoin:miter;stroke:url(#linear0);stroke-miterlimit:4;" d="M 4.970947 0.499023 L 28.97168 0.499023 C 30.905273 0.499023 32.468262 2.070068 32.468262 4.003662 L 32.468262 27.996338 C 32.468262 29.929932 30.905273 31.500977 28.97168 31.500977 L 4.970947 31.500977 C 3.037354 31.500977 1.466309 29.929932 1.466309 27.996338 L 1.466309 4.003662 C 1.466309 2.070068 3.037354 0.499023 4.970947 0.499023 Z M 4.970947 0.499023 " transform="matrix(0.484848,0,0,0.484848,0,0.242424)"/>
<path style="fill:none;stroke-width:2;stroke-linecap:round;stroke-linejoin:miter;stroke:url(#linear1);stroke-miterlimit:4;" d="M 10.965088 16.306152 L 14.518066 19.996094 L 22.969482 12.003906 " transform="matrix(0.484848,0,0,0.484848,0,0.242424)"/>
</g>
</svg>
