<svg width="30" height="30" viewBox="0 0 22 19" fill="none" xmlns="http://www.w3.org/2000/svg">
<path d="M19.7477 5.37169C19.7606 5.5651 19.7606 5.75944 19.7606 5.95469C19.7606 11.9194 15.2194 18.7972 6.91808 18.7972V18.7935C4.466 18.7972 2.06433 18.095 0 16.7704C0.356583 16.8135 0.715 16.8346 1.07433 16.8355C3.1075 16.8374 5.082 16.1554 6.67975 14.8995C4.74833 14.8629 3.05433 13.6034 2.46308 11.7645C3.13958 11.8947 3.83625 11.8681 4.50083 11.6875C2.39433 11.2622 0.88 9.41144 0.88 7.26277C0.88 7.24352 0.88 7.22427 0.88 7.20594C1.50792 7.5561 2.21008 7.74952 2.92875 7.7706C0.945083 6.44602 0.33275 3.80785 1.53083 1.74535C3.8225 4.56502 7.20408 6.27919 10.8332 6.4616C10.4692 4.8941 10.967 3.25144 12.1385 2.14869C13.9563 0.439104 16.8153 0.527104 18.5249 2.34485C19.536 2.14594 20.5049 1.77469 21.3913 1.24944C21.054 2.29444 20.3491 3.18177 19.4067 3.74644C20.3023 3.63919 21.1759 3.39994 22 3.0351C21.3941 3.94169 20.6314 4.73277 19.7477 5.37169Z" fill="#DCDCF0"/>
</svg>
