<svg width="30" height="30" viewBox="0 0 22 17" fill="none" xmlns="http://www.w3.org/2000/svg">
<path d="M20.95 3.67188C20.75 2.57187 19.8 1.77187 18.7 1.52187C17.05 1.17187 14 0.921875 10.7 0.921875C7.4 0.921875 4.3 1.17187 2.65 1.52187C1.55 1.77187 0.6 2.52188 0.4 3.67188C0.2 4.92188 0 6.67188 0 8.92188C0 11.1719 0.2 12.9219 0.45 14.1719C0.65 15.2719 1.6 16.0719 2.7 16.3219C4.45 16.6719 7.45 16.9219 10.75 16.9219C14.05 16.9219 17.05 16.6719 18.8 16.3219C19.9 16.0719 20.85 15.3219 21.05 14.1719C21.25 12.9219 21.5 11.1219 21.55 8.92188C21.45 6.67188 21.2 4.92188 20.95 3.67188ZM8 12.4219V5.42188L14.1 8.92188L8 12.4219Z" fill="#DCDCF0"/>
</svg>
