<svg width="180" height="37" viewBox="0 0 180 37" fill="none" xmlns="http://www.w3.org/2000/svg">
<path fill-rule="evenodd" clip-rule="evenodd" d="M22.5204 34.2104C24.5211 36.0178 26.7946 36.9214 29.3409 36.9214C30.7103 36.9214 32.0126 36.6529 33.2478 36.1159C34.5099 35.5788 35.5974 34.8404 36.5104 33.9006C37.4502 32.9339 38.1752 31.833 38.6854 30.5978C39.2224 29.3626 39.4909 28.0468 39.4909 26.6505V10.3781C39.4909 9.37712 38.6795 8.56563 37.6784 8.56563C36.6774 8.56563 35.8659 9.37712 35.8659 10.3781V11.3448C35.2752 10.5393 34.4025 9.81425 33.2478 9.1698C32.0932 8.52535 30.7774 8.20312 29.3006 8.20312C27.9311 8.20312 26.6288 8.45822 25.3936 8.96841C24.1852 9.4786 23.1112 10.1902 22.1713 11.1032C21.2315 12.043 20.4931 13.1305 19.956 14.3657C19.4459 15.574 19.1908 16.8629 19.1908 18.2324C19.1908 19.575 19.4459 20.8773 19.956 22.1394C20.4931 23.4014 21.2181 24.5292 22.1311 25.5227C23.044 26.5163 24.1181 27.3084 25.3533 27.8991C26.6154 28.463 27.9311 28.745 29.3006 28.745C31.8515 28.745 34.04 27.7246 35.8659 25.6838V26.6505C35.8659 27.5366 35.6914 28.3825 35.3423 29.188C35.0201 29.9936 34.5636 30.7052 33.9728 31.3228C33.3821 31.9404 32.6839 32.4237 31.8784 32.7728C31.0728 33.1219 30.227 33.2964 29.3409 33.2964C27.8591 33.2964 26.5231 32.8131 25.3329 31.8464C24.6357 31.2802 23.6619 31.0942 22.89 31.5534C21.9184 32.1315 21.6815 33.4525 22.5204 34.2104ZM26.7631 12.3921C27.5686 12.043 28.4145 11.8684 29.3006 11.8684C30.1867 11.8684 31.0325 12.043 31.8381 12.3921C32.6437 12.7143 33.3418 13.1842 33.9326 13.8018C34.5233 14.4194 34.9798 15.1444 35.302 15.9768C35.6511 16.7824 35.8256 17.6282 35.8256 18.5143C35.8256 19.4005 35.6511 20.2597 35.302 21.0921C34.9798 21.8977 34.5233 22.5959 33.9326 23.1866C33.3418 23.7773 32.6437 24.2473 31.8381 24.5963C31.0325 24.9454 30.1867 25.1199 29.3006 25.1199C28.4145 25.1199 27.5686 24.9454 26.7631 24.5963C25.9575 24.2473 25.2593 23.7773 24.6686 23.1866C24.0778 22.5959 23.6079 21.8977 23.2589 21.0921C22.9098 20.2597 22.7352 19.4005 22.7352 18.5143C22.7352 17.6282 22.9098 16.7824 23.2589 15.9768C23.6079 15.1444 24.0778 14.4194 24.6686 13.8018C25.2593 13.1842 25.9575 12.7143 26.7631 12.3921Z" fill="white"/>
<path d="M82.9302 11.9437C83.4404 11.9437 84.0177 12.0914 84.6621 12.3867L88.0052 10.4131C87.1191 9.68811 86.2733 9.16449 85.4677 8.84227C84.6621 8.52004 83.8163 8.35893 82.9302 8.35893C81.8292 8.35893 80.7954 8.58717 79.8288 9.04366C78.5399 9.71496 77.5195 10.6548 76.7676 11.8631C76.0426 13.0715 75.6801 14.4007 75.6801 15.8507V28.6591H79.144V15.8507C79.144 14.8034 79.52 13.877 80.2718 13.0715C80.97 12.3196 81.8561 11.9437 82.9302 11.9437Z" fill="white"/>
<path d="M158.988 25.0163C158.988 27.0184 160.611 28.6414 162.613 28.6414V16.0343C162.613 15.0139 162.411 14.0472 162.009 13.1343C161.633 12.1944 161.096 11.3754 160.397 10.6773C159.699 9.97914 158.894 9.4421 157.981 9.06617C157.068 8.69024 156.088 8.50227 155.04 8.50227C153.859 8.50227 152.771 8.74394 151.778 9.22728C150.784 9.68377 149.925 10.3282 149.2 11.1606C148.475 10.3282 147.616 9.68377 146.622 9.22728C145.656 8.74394 144.582 8.50227 143.4 8.50227C142.702 8.50227 141.977 8.69024 141.225 9.06617C140.5 9.4421 139.909 9.91201 139.453 10.4759C139.453 9.65284 138.786 8.98561 137.963 8.98561H137.64C136.639 8.98561 135.828 9.79711 135.828 10.7981V28.6414C137.83 28.6414 139.453 27.0184 139.453 25.0163V16.1148C139.453 15.0139 139.856 14.0607 140.661 13.2551C141.413 12.5032 142.326 12.1273 143.4 12.1273C144.501 12.1273 145.454 12.5032 146.26 13.2551C147.012 13.9533 147.388 14.8662 147.388 15.994V26.8087C147.388 27.8208 148.208 28.6414 149.22 28.6414C150.232 28.6414 151.053 27.8208 151.053 26.8087V15.994C151.053 14.8931 151.442 13.9801 152.221 13.2551C153.027 12.5032 153.966 12.1273 155.04 12.1273C156.141 12.1273 157.068 12.5032 157.82 13.2551C158.598 14.007 158.988 14.9334 158.988 16.0343V25.0163Z" fill="white"/>
<path fill-rule="evenodd" clip-rule="evenodd" d="M128.212 26.8355C128.212 27.8366 129.024 28.648 130.025 28.648C131.026 28.648 131.837 27.8365 131.837 26.8355V10.8048C131.837 9.8038 131.026 8.99231 130.025 8.99231C129.024 8.99231 128.212 9.8038 128.212 10.8048V11.6507C127.407 10.684 126.427 9.93213 125.272 9.39509C124.144 8.85805 122.936 8.58953 121.647 8.58953C120.251 8.58953 118.935 8.84462 117.7 9.35481C116.491 9.865 115.417 10.59 114.478 11.5298C113.538 12.4697 112.799 13.5706 112.262 14.8326C111.752 16.0678 111.497 17.3702 111.497 18.7396C111.497 20.1091 111.752 21.4248 112.262 22.6869C112.799 23.9221 113.538 24.9962 114.478 25.9091C115.417 26.849 116.491 27.574 117.7 28.0842C118.935 28.5943 120.251 28.8494 121.647 28.8494C122.909 28.8494 124.104 28.5541 125.232 27.9633C126.36 27.3726 127.353 26.5804 128.212 25.5869V26.8355ZM119.069 12.6979C119.902 12.3488 120.761 12.1743 121.647 12.1743C122.533 12.1743 123.379 12.3488 124.185 12.6979C124.99 13.0201 125.688 13.4766 126.279 14.0674C126.87 14.6581 127.326 15.3697 127.649 16.2021C127.998 17.0077 128.172 17.8535 128.172 18.7396C128.172 19.6257 127.998 20.4716 127.649 21.2771C127.326 22.0827 126.87 22.7809 126.279 23.3716C125.688 23.9624 124.99 24.4323 124.185 24.7813C123.379 25.1036 122.533 25.2647 121.647 25.2647C120.761 25.2647 119.902 25.1036 119.069 24.7813C118.264 24.4323 117.566 23.9624 116.975 23.3716C116.384 22.7809 115.914 22.0827 115.565 21.2771C115.243 20.4716 115.082 19.6257 115.082 18.7396C115.082 17.8535 115.243 17.0077 115.565 16.2021C115.914 15.3697 116.384 14.6581 116.975 14.0674C117.566 13.4766 118.264 13.0201 119.069 12.6979Z" fill="white"/>
<path fill-rule="evenodd" clip-rule="evenodd" d="M91.8743 20.112C91.8743 20.7564 92.1025 21.4277 92.559 22.1259C93.0423 22.824 93.5928 23.4148 94.2104 23.8981C95.3382 24.7842 96.6539 25.2273 98.1576 25.2273C100.021 25.2273 101.615 24.5252 102.94 23.121C103.601 22.4202 104.652 22.1505 105.481 22.6414C106.347 23.1545 106.635 24.291 105.992 25.0657C105.171 26.0533 104.238 26.859 103.192 27.4829C101.662 28.3958 99.9836 28.8523 98.1576 28.8523C96.7882 28.8523 95.4859 28.5972 94.2507 28.087C93.0155 27.55 91.9279 26.8116 90.9881 25.8717C90.0483 24.9319 89.3099 23.8444 88.7728 22.6092C88.2626 21.374 88.0075 20.0717 88.0075 18.7022C88.0075 17.3328 88.2626 16.0304 88.7728 14.7952C89.3099 13.5332 90.0483 12.4323 90.9881 11.4924C91.9011 10.5526 92.9752 9.82761 94.2104 9.31742C95.4724 8.80723 96.7882 8.55213 98.1576 8.55213C99.5271 8.55213 100.829 8.80723 102.065 9.31742C103.327 9.82761 104.414 10.5526 105.327 11.4924C107.314 13.5332 108.308 15.8962 108.308 18.5814C108.308 19.0647 108.267 19.5749 108.187 20.112H91.8743ZM98.1576 11.8549C97.0567 11.8549 96.0229 12.0966 95.0562 12.5799C94.0896 13.0633 93.3108 13.7077 92.7201 14.5133C92.1562 15.292 91.8743 16.1244 91.8743 17.0105H104.441C104.441 16.1244 104.146 15.292 103.555 14.5133C102.991 13.7077 102.226 13.0633 101.259 12.5799C100.292 12.0966 99.2586 11.8549 98.1576 11.8549Z" fill="white"/>
<path d="M67.0166 8.50227C65.1049 8.50227 63.2405 10.052 63.2405 11.9637H67.0166V28.6414H70.478V11.9637C72.3896 11.9637 74.8834 10.414 74.8834 8.50227H67.0166Z" fill="white"/>
<path d="M14.226 28.9654C13.2472 28.9654 12.4538 28.172 12.4538 27.1932V16.882C12.4538 15.6736 12.0107 14.6264 11.1246 13.7403C10.2653 12.881 9.21809 12.4514 7.98289 12.4514C6.77454 12.4514 5.72731 12.8944 4.84119 13.7806C4.43841 14.1833 4.11619 14.6667 3.87452 15.2306C3.63285 15.7676 3.51201 16.3181 3.51201 16.882V27.2133C3.51201 28.181 2.72757 28.9654 1.75991 28.9654C0.792255 28.9654 0.0078125 28.181 0.0078125 27.2133V11.0618C0.0078125 10.0941 0.792254 9.30969 1.75991 9.30969H1.86061C2.77265 9.30969 3.51201 10.049 3.51201 10.9611C4.0222 10.3435 4.6935 9.83331 5.52592 9.43052C6.35834 9.02774 7.17733 8.82635 7.98289 8.82635C9.05697 8.82635 10.0774 9.04117 11.044 9.4708C12.0376 9.87358 12.9102 10.4509 13.6621 11.2028C14.3871 11.9278 14.951 12.787 15.3538 13.7806C15.7834 14.7472 15.9982 15.781 15.9982 16.882V27.1932C15.9982 28.172 15.2048 28.9654 14.226 28.9654Z" fill="white"/>
<path d="M175.847 13.5006C176.298 14.2227 176.995 14.87 177.846 14.87H179.771C179.786 14.87 179.801 14.8666 179.814 14.86C179.85 14.8419 179.871 14.8028 179.866 14.7626C179.701 13.5035 179.355 12.4518 178.827 11.6075C178.263 10.7482 177.592 10.0769 176.813 9.5936C175.713 8.94915 174.424 8.62692 172.947 8.62692C170.933 8.62692 169.308 9.09683 168.073 10.0367C166.865 10.9496 166.153 12.2788 165.938 14.0242C165.911 14.2122 165.898 14.4807 165.898 14.8298C165.898 16.3872 166.355 17.6761 167.268 18.6965C168.395 20.0391 170.02 20.7104 172.141 20.7104C173.833 20.7104 174.974 20.8581 175.565 21.1534C176.156 21.4488 176.451 22.0798 176.451 23.0465C176.451 23.7447 176.182 24.3354 175.645 24.8187C175.108 25.2752 174.37 25.5303 173.43 25.584C173.296 25.6109 173.081 25.6243 172.786 25.6243C171.685 25.6243 170.825 25.3289 170.208 24.7382C170.134 24.6641 170.064 24.586 169.999 24.5038C169.466 23.8287 168.786 23.1673 167.925 23.1673C166.815 23.1673 165.937 24.1724 166.36 25.1989C166.713 26.0559 167.203 26.775 167.831 27.3563C169.147 28.5915 170.879 29.2091 173.027 29.2091H173.631C174.491 29.2091 175.31 29.0345 176.088 28.6854C176.894 28.3364 177.592 27.8799 178.183 27.316C179.391 26.1613 179.995 24.7919 179.995 23.2076C179.995 21.6502 179.687 20.4418 179.069 19.5826C178.478 18.7233 177.619 18.1191 176.491 17.7701C175.39 17.421 173.94 17.2062 172.141 17.1256C171.121 17.0988 170.382 16.8302 169.926 16.32C169.496 15.8367 169.281 15.2997 169.281 14.7089C169.281 14.2256 169.416 13.7825 169.684 13.3797C169.98 12.977 170.409 12.6682 170.973 12.4533C171.403 12.2654 172.02 12.1714 172.826 12.1714C174.33 12.1714 175.337 12.6145 175.847 13.5006Z" fill="white"/>
<path d="M45.1875 35.1016C42.7776 30.9275 44.2077 25.5902 48.3818 23.1803L57.9493 17.6565C60.0363 16.4516 62.705 17.1666 63.9099 19.2536C65.1149 21.3407 64.3998 24.0093 62.3128 25.2143L45.1875 35.1016Z" fill="url(#paint0_linear_1029_514)"/>
<path d="M62.3149 17.662C64.4019 18.867 65.117 21.5356 63.912 23.6226C62.7071 25.7097 60.0384 26.4247 57.9514 25.2198L44.6045 17.514C42.5175 16.309 41.8024 13.6404 43.0074 11.5533C44.2123 9.46631 46.881 8.75124 48.968 9.95618L62.3149 17.662Z" fill="url(#paint1_linear_1029_514)"/>
<path d="M61.5312 0C63.9411 4.17404 62.511 9.51137 58.337 11.9213L48.7694 17.4451C46.6824 18.65 44.0137 17.9349 42.8088 15.8479C41.6039 13.7609 42.3189 11.0922 44.4059 9.8873L61.5312 0Z" fill="url(#paint2_linear_1029_514)"/>
<defs>
<linearGradient id="paint0_linear_1029_514" x1="50.4397" y1="27.4054" x2="56.1832" y2="19.6193" gradientUnits="userSpaceOnUse">
<stop offset="0.0970874" stop-color="#E8BE76"/>
<stop offset="0.958409" stop-color="#FF5C7A"/>
</linearGradient>
<linearGradient id="paint1_linear_1029_514" x1="61.6374" y1="25.712" x2="50.7857" y2="12.5725" gradientUnits="userSpaceOnUse">
<stop stop-color="#E8BE76"/>
<stop offset="1" stop-color="#FF5C7A"/>
</linearGradient>
<linearGradient id="paint2_linear_1029_514" x1="64.3139" y1="-2.33268" x2="45.1793" y2="19.6264" gradientUnits="userSpaceOnUse">
<stop stop-color="#8C4AF6"/>
<stop offset="1" stop-color="#E6708D"/>
</linearGradient>
</defs>
</svg>
