<svg width="25" height="24" viewBox="0 0 25 24" fill="none" xmlns="http://www.w3.org/2000/svg">
<path d="M10.7916 13.7084L22.8027 1.69727M10.9375 14.0837L13.9439 21.8143C14.2087 22.4954 14.3411 22.8359 14.5319 22.9353C14.6973 23.0215 14.8944 23.0216 15.0599 22.9356C15.2508 22.8364 15.3836 22.496 15.6493 21.8153L23.1881 2.4971C23.4279 1.88261 23.5478 1.57536 23.4822 1.37903C23.4253 1.20853 23.2915 1.07473 23.121 1.01777C22.9246 0.952187 22.6174 1.07209 22.0029 1.31189L2.68467 8.85071C2.00395 9.11635 1.6636 9.24918 1.56441 9.4401C1.47842 9.60561 1.47854 9.80265 1.56472 9.96806C1.66413 10.1589 2.00464 10.2913 2.68567 10.5561L10.4163 13.5625C10.5545 13.6162 10.6236 13.6431 10.6819 13.6846C10.7334 13.7214 10.7786 13.7666 10.8154 13.8181C10.8569 13.8763 10.8837 13.9455 10.9375 14.0837Z" stroke="#DCDCF0" stroke-width="1.5" stroke-linecap="round" stroke-linejoin="round"/>
</svg>
