<svg width="25" height="24" viewBox="0 0 25 24" fill="none" xmlns="http://www.w3.org/2000/svg">
<path d="M7.75 9.49567L2.75 11.9957L12.3922 16.8168C12.5234 16.8824 12.589 16.9152 12.6578 16.9281C12.7187 16.9395 12.7813 16.9395 12.8422 16.9281C12.911 16.9152 12.9766 16.8824 13.1078 16.8168L22.75 11.9957L17.75 9.49567M7.75 14.4957L2.75 16.9957L12.3922 21.8168C12.5234 21.8824 12.589 21.9152 12.6578 21.9281C12.7187 21.9395 12.7813 21.9395 12.8422 21.9281C12.911 21.9152 12.9766 21.8824 13.1078 21.8168L22.75 16.9957L17.75 14.4957M2.75 6.99567L12.3922 2.17456C12.5234 2.10896 12.589 2.07617 12.6578 2.06326C12.7187 2.05183 12.7813 2.05183 12.8422 2.06326C12.911 2.07617 12.9766 2.10896 13.1078 2.17456L22.75 6.99567L13.1078 11.8168C12.9766 11.8824 12.911 11.9152 12.8422 11.9281C12.7813 11.9395 12.7187 11.9395 12.6578 11.9281C12.589 11.9152 12.5234 11.8824 12.3922 11.8168L2.75 6.99567Z" stroke="#DCDCF0" stroke-width="1.5" stroke-linecap="round" stroke-linejoin="round"/>
</svg>
